<?xml version="1.0" standalone="no"?>
<!DOCTYPE svg PUBLIC "-//W3C//DTD SVG 20010904//EN"
 "http://www.w3.org/TR/2001/REC-SVG-20010904/DTD/svg10.dtd">
<svg version="1.0" xmlns="http://www.w3.org/2000/svg"
 width="927.000000pt" height="927.000000pt" viewBox="0 0 927.000000 927.000000"
 preserveAspectRatio="xMidYMid meet">
<metadata>
Created by potrace 1.14, written by Peter Selinger 2001-2017
</metadata>
<g transform="translate(0.000000,927.000000) scale(0.100000,-0.100000)"
fill="#000000" stroke="none">
<path d="M6158 8455 c-1 -2 -37 -6 -78 -10 -70 -6 -107 -10 -170 -20 -463 -73
-891 -235 -1254 -477 -49 -32 -95 -57 -103 -54 -7 3 -39 23 -71 44 -300 203
-698 378 -997 438 -129 26 -221 41 -310 50 -38 3 -79 8 -90 11 -23 4 -373 3
-450 -1 -82 -5 -199 -19 -280 -33 -16 -2 -39 -6 -50 -7 -11 -2 -33 -6 -50 -9
-16 -4 -46 -9 -65 -12 -19 -3 -43 -8 -52 -11 -9 -3 -25 -7 -37 -9 -71 -13
-298 -85 -411 -128 -134 -52 -338 -150 -420 -202 -22 -14 -42 -25 -45 -25 -11
0 -289 -194 -315 -220 -3 -3 -34 -30 -70 -60 -244 -205 -502 -538 -623 -802
-13 -29 -34 -73 -45 -98 -43 -95 -102 -292 -136 -455 l-35 -170 2 -2275 c2
-1251 6 -2291 10 -2310 63 -283 252 -528 518 -669 62 -32 277 -116 287 -111 3
2 77 -10 107 -17 69 -16 287 -9 403 12 58 11 72 14 163 45 293 98 535 322 639
592 61 159 58 40 59 2398 0 1556 3 2169 11 2205 16 72 67 161 126 221 138 140
345 215 570 207 286 -10 533 -164 620 -388 19 -49 19 -100 20 -2240 l2 -2190
21 -89 c50 -208 153 -373 331 -527 129 -112 377 -220 565 -245 69 -9 268 -10
335 -1 319 41 607 211 778 460 48 69 109 201 134 292 l23 80 3 2205 c2 1966 4
2211 18 2259 66 229 344 402 649 404 309 2 582 -161 661 -396 17 -49 18 -177
20 -2227 1 -1575 4 -2193 12 -2240 67 -387 382 -699 802 -797 103 -23 147 -28
280 -28 175 1 325 27 435 75 11 5 38 16 60 25 60 24 173 93 235 144 187 152
304 340 351 566 10 47 13 540 14 2295 0 1229 -3 2262 -7 2295 -4 33 -12 78
-17 100 -5 22 -15 67 -21 100 -44 227 -148 492 -274 698 -22 37 -45 76 -51 85
-69 120 -366 452 -494 553 -24 18 -58 46 -75 60 -47 40 -241 170 -326 219
-354 205 -774 346 -1180 395 -25 3 -67 8 -95 11 -52 7 -561 15 -567 9z m582
-430 c332 -43 680 -150 950 -291 95 -50 338 -205 372 -236 7 -7 38 -33 68 -58
141 -115 321 -318 422 -475 137 -214 211 -400 268 -674 l28 -135 -2 -2220 -2
-2221 -22 -65 c-74 -219 -302 -380 -577 -407 -320 -32 -629 139 -727 402 l-22
60 -2 2178 c-1 1198 -5 2201 -8 2229 -4 27 -18 86 -32 130 -141 446 -651 740
-1184 683 -385 -42 -710 -250 -867 -555 -50 -96 -72 -169 -89 -290 -3 -25 -6
-1008 -6 -2185 0 -1215 -4 -2162 -9 -2190 -29 -163 -177 -328 -365 -407 -186
-79 -437 -75 -622 9 -162 73 -280 197 -332 348 -20 57 -20 87 -21 2094 -1
2276 -1 2298 -22 2397 -84 395 -468 709 -927 759 -73 8 -240 9 -285 2 -16 -3
-50 -8 -75 -12 -248 -37 -511 -179 -663 -358 -95 -111 -173 -266 -204 -407 -4
-19 -8 -1014 -10 -2210 -2 -1555 -6 -2192 -14 -2235 -36 -195 -217 -369 -451
-435 -383 -108 -802 97 -879 429 -11 48 -16 4437 -5 4496 51 273 107 447 202
625 40 74 147 246 163 260 4 3 31 37 62 75 85 105 267 282 342 334 12 8 24 18
27 21 6 8 213 147 250 169 282 164 686 302 980 337 25 3 56 7 70 9 129 23 541
23 659 0 9 -1 39 -6 66 -9 28 -4 91 -16 140 -27 50 -12 97 -22 106 -24 76 -16
295 -102 435 -171 158 -78 373 -210 469 -288 108 -89 208 -97 301 -26 276 211
511 339 794 434 95 31 168 53 195 57 6 1 30 7 55 15 65 19 266 53 352 60 40 3
75 8 77 10 6 6 516 -3 571 -11z"/>
</g>
</svg>
